<svg xmlns="http://www.w3.org/2000/svg" viewBox="0 0 34283.5 42860.9" width="32" height="40">
  <path fill="#ffffff" d="m 15500.505,29.071189 h 3158.839 6123.289 c 154.541,-6.804 543.322,-34.5049996 548.666,193.904001 3.888,138.502 -177.381,363.023 -253.192,479.655 l -545.265,923.35401 -1581.849,2915.853 -375.658,728.962 -1790.335,3450.426 -2598.996,5005.5448 -2087.263,4033.593 -1209.592,2284.086 c -158.429,280.892 -392.669,745.97 -608.443,967.575 -742.082,762.011 -1930.777,1023.465 -2959.588,1024.925 H 532.46633 c -140.44766,0 -398.98567,20.409 -482.573622,-118.093 -85.045763,-139.962 62.203342,-346.014 132.670982,-465.08 L 836.19904,20238.838 3583.419,14601.525 6059.9483,9450.1862 8344.5189,4687.6282 9365.0681,2646.5332 c 415.5092,-830.531 660.4389,-1435.571 1470.0729,-1958.48101 1184.322,-765.412001 2408.01,-617.187001 3742.011,-617.187001 307.621,0 618.16,15.55 923.353,-41.794 z M 8016.486,42885.288 v -388.781 c 7.289,-534.087 612.8141,-1525.962 862.1201,-2041.095 l 1798.1079,-3693.413 3086.916,-6366.278 849.485,-1700.912 2819.143,-5783.105 2137.806,-4373.779 437.862,-923.353 c 76.299,-151.623 154.055,-343.099 308.593,-429.115 121.979,-67.067 296.447,-56.859 432.518,-56.859 h 13558.712 c -321.717,449.038 -1533.737,1569.211 -1992.498,1996.871 l -2429.877,2381.279 -1943.902,1937.583 -437.377,392.67 -1895.304,1893.359 -631.768,583.655 -1846.707,1845.734 -534.572,486.949 -1846.707,1845.734 -534.572,486.945 -1798.109,1795.68 -485.974,439.807 -2041.096,2038.668 -485.977,439.807 -1895.302,1892.874 -485.976,439.807 -1700.913,1699.943 -485.977,439.806 -874.7526,872.813 -1166.343,1119.685 c -256.1075,244.933 -488.4048,519.994 -777.5594,727.021 z"/>
</svg>
