<svg xmlns="http://www.w3.org/2000/svg" viewBox="0 0 153541.62 42932.57">
  <g fill="#ffffff"><path d="m 15500.505,29.071189 h 3158.839 6123.289 c 154.541,-6.804 543.322,-34.5049996 548.666,193.904001 3.888,138.502 -177.381,363.023 -253.192,479.655 l -545.265,923.35401 -1581.849,2915.853 -375.658,728.962 -1790.335,3450.426 -2598.996,5005.5448 -2087.263,4033.593 -1209.592,2284.086 c -158.429,280.892 -392.669,745.97 -608.443,967.575 -742.082,762.011 -1930.777,1023.465 -2959.588,1024.925 H 532.46633 c -140.44766,0 -398.98567,20.409 -482.573622,-118.093 -85.045763,-139.962 62.203342,-346.014 132.670982,-465.08 L 836.19904,20238.838 3583.419,14601.525 6059.9483,9450.1862 8344.5189,4687.6282 9365.0681,2646.5332 c 415.5092,-830.531 660.4389,-1435.571 1470.0729,-1958.48101 1184.322,-765.412001 2408.01,-617.187001 3742.011,-617.187001 307.621,0 618.16,15.55 923.353,-41.794 z M 8016.486,42885.288 v -388.781 c 7.289,-534.087 612.8141,-1525.962 862.1201,-2041.095 l 1798.1079,-3693.413 3086.916,-6366.278 849.485,-1700.912 2819.143,-5783.105 2137.806,-4373.779 437.862,-923.353 c 76.299,-151.623 154.055,-343.099 308.593,-429.115 121.979,-67.067 296.447,-56.859 432.518,-56.859 h 13558.712 c -321.717,449.038 -1533.737,1569.211 -1992.498,1996.871 l -2429.877,2381.279 -1943.902,1937.583 -437.377,392.67 -1895.304,1893.359 -631.768,583.655 -1846.707,1845.734 -534.572,486.949 -1846.707,1845.734 -534.572,486.945 -1798.109,1795.68 -485.974,439.807 -2041.096,2038.668 -485.977,439.807 -1895.302,1892.874 -485.976,439.807 -1700.913,1699.943 -485.977,439.806 -874.7526,872.813 -1166.343,1119.685 c -256.1075,244.933 -488.4048,519.994 -777.5594,727.021 z"/><path d="m 56662.614,24952.8 c -936.997,-509.204 -1878.042,-1010.858 -2818.657,-1513.327 -163.288,-90.392 -475.77,-190.019 -405.302,-431.545 970.603,-1179.241 2139.804,-2218.062 3221.044,-3303.662 86.018,-93.793 190.016,-201.194 161.344,-340.183 -26.245,-125.867 -308.596,-427.172 -403.846,-534.573 -282.354,-317.828 -511.248,-614.272 -741.6,-971.951 -624.479,-969.521 -1040.473,-2243.262 -1054.078,-3401.825 -8.75,-783.394 84.558,-1575.534 292.07,-2332.684 202.166,-736.25 493.751,-1446.263 908.287,-2089.694 1182.864,-1836.4988 3212.298,-2817.6848 5311.711,-3162.7258 390.724,-64.149 970.978,-141.418 1360.73,-141.903 h 777.562 c 1207.161,14.093 2533.389,484.516 3450.423,485.974 h 6366.277 l 680.366,48.596 c -123.439,539.921 -911.691,1992.988 -1202.791,2575.67 -225.005,450.0138 -324.629,721.1878 -886.903,728.9618 h -631.768 c -173.494,0.49 -487.919,-23.325 -538.46,199.738 -31.102,137.529 237.156,782.905 294.5,966.602 177.866,572.966 340.183,1345.182 341.154,1943.903 v 680.366 c -0.488,395.097 -78.242,873.782 -155.511,1263.536 -367.397,1848.164 -1349.555,3397.94 -2954.73,4419.944 -1179.948,750.831 -2865.31,1360.732 -4276.583,1363.16 h -1214.938 l -2138.29,-238.126 c -436.893,41.307 -859.692,658.012 -1166.343,967.09 -106.427,107.401 -352.33,308.594 -283.323,479.171 63.664,158.914 419.398,219.662 574.909,263.886 l 1846.706,442.235 4227.986,550.611 c 1200.357,157.944 2089.693,275.549 3207.436,806.721 970.493,461.189 1954.107,1204.246 2524.157,2122.738 498.122,802.833 692.999,1742.222 733.822,2672.864 l 42.765,437.379 -40.337,388.781 c -112.746,1641.625 -624.961,2867.741 -1758.257,4082.192 -1603.72,1718.894 -4084.135,2380.308 -6361.904,2480.417 l -631.765,46.655 h -1069.148 l -1943.899,-181.269 c -1906.97,-275.061 -4280.957,-947.653 -5632.94,-2394.401 -548.668,-587.059 -930.642,-1320.394 -1149.82,-2089.694 -186.615,-653.15 -223.062,-1125.517 -215.286,-1798.109 7.774,-653.15 214.316,-1454.524 498.61,-2041.095 632.741,-1307.274 1840.39,-2436.194 2854.62,-3450.424 z m 16328.769,-6171.888 908.288,-2041.095 c 118.58,-257.568 380.519,-866.009 568.592,-1050.193 334.837,-328.033 922.38,-4.859 1245.067,-505.902 121.981,-189.528 259.999,-811.091 332.894,-1068.171 151.14,-530.687 353.791,-1058.943 595.321,-1555.122 1016.658,-2091.151 2516.38,-3638.9838 4611.417,-4652.7268 1104.622,-534.574 3097.123,-982.643 4325.182,-984.589 931.13,-1.452 1595.942,-1.452 2527.072,166.206 2777.349,501.04 5153.767,1895.79 6635.993,4353.3678 415.021,687.655 892.251,1702.855 1096.845,2478.474 341.641,1295.608 349.903,2888.636 334.352,4227.983 -1.943,169.121 -4.373,428.632 -160.372,534.087 -133.644,90.877 -501.528,97.196 -665.785,97.681 H 92721.98 81350.158 c -94.765,0 -251.734,-5.346 -337.265,29.159 -315.885,126.84 -151.625,596.293 -100.111,845.597 139.96,673.562 396.07,1365.59 770.755,1943.902 832.962,1285.404 2083.863,1899.19 3554.424,2142.178 256.11,42.281 718.756,98.168 971.951,92.822 1167.313,-26.728 2183.974,-482.574 3061.645,-1235.35 299.359,-256.595 549.638,-566.647 755.692,-902.454 100.597,-163.775 181.754,-363.511 410.648,-339.698 122.954,12.635 412.106,169.606 534.572,230.352 l 1117.745,583.17 1798.107,942.305 c 169.606,93.795 547.21,234.728 592.404,432.52 38.394,167.176 -165.718,450.012 -259.51,581.225 -331.437,461.192 -700.291,917.522 -1110.454,1310.189 -1578.449,1510.412 -3433.902,2327.825 -5588.715,2584.903 l -923.353,89.906 c -1056.512,12.151 -1764.577,23.813 -2818.658,-166.203 -2191.263,-396.07 -4371.346,-1577.961 -5810.32,-3284.222 -1039.989,-1232.918 -1830.183,-2783.666 -2130.03,-4373.777 l -148.222,-971.951 c -25.27,-153.081 -64.636,-347.958 -191.961,-450.012 -124.409,-99.626 -315.886,-84.076 -467.02,-84.561 z M 45485.182,11053.906 c 147.249,-326.576 846.084,-1125.0348 1116.284,-1409.3278 1127.95,-1188.698 2244.235,-1905.024 3840.665,-2302.067 546.722,-136.072 1090.042,-212.371 1652.315,-225.491 185.157,-4.858 454.873,-74.841 610.871,45.68 139.96,108.373 117.605,330.463 118.093,489.378 V 12123.05 c -1.946,115.662 3.401,264.372 -84.561,352.818 -229.963,170.064 -664.899,131.216 -935.988,131.216 -567.666,38.101 -1134.181,90.303 -1700.913,139.958 -1474.449,157.456 -2712.715,536.517 -3623.918,1805.885 -899.056,1251.386 -990.418,2697.649 -992.848,4179.387 -106.437,1956.883 -48.598,3920.874 -48.598,5880.303 v 2138.289 c 0,196.335 28.673,710.498 -63.664,861.15 -111.774,182.727 -382.462,158.914 -568.104,159.399 h -3499.022 c -223.063,0 -935.988,63.176 -1060.885,-118.092 -68.522,-99.624 -56.86,-297.417 -56.86,-416.48 v -14530.66 c 1.46,-782.908 401.416,-984.589 923.353,-1506.524 l 2429.877,-2429.8758 874.756,-824.215 c 94.28,-87.961 272.633,-266.8 416.481,-190.016 147.737,79.212 170.092,650.232 194.877,819.839 l 360.593,2478.4748 z m 17154.928,-229.382 -777.562,105.457 c -833.446,167.661 -1592.054,584.628 -2087.748,1290.265 -527.771,751.316 -491.808,1421.478 -487.92,2284.083 2.431,522.425 192.932,1137.669 511.245,1555.121 653.15,856.289 1825.325,1348.095 2890.581,1360.73 1287.836,15.066 2629.127,-347.469 3412.52,-1457.923 222.575,-315.885 328.518,-693.486 397.04,-1069.147 182.73,-1007.426 12.151,-2314.214 -748.4,-3059.7 -784.849,-769.3 -2030.891,-1108.995 -3109.756,-1008.886 z m 23083.827,340.183 -826.16,115.662 c -1223.685,265.345 -2363.297,955.915 -3115.586,1960.426 -357.192,477.228 -624.479,1024.435 -765.897,1603.717 -32.562,132.186 -125.382,445.153 -51.999,562.273 87.477,138.99 339.696,118.093 483.059,118.093 h 8893.35 c 103.51,0 286.236,6.804 377.601,-35.963 259.511,-120.52 113.232,-575.878 69.495,-790.194 -116.15,-571.023 -318.316,-1136.697 -674.535,-1603.72 -924.811,-1213.48 -2078.031,-1754.856 -3563.17,-1903.563 -329.491,-33.048 -484.517,-58.318 -826.158,-26.731 z m 58803.973,459.734 c 210.44,-51.514 444.67,-63.662 619.63,88.931 242.5,210.915 241.04,773.674 -183.22,936.964 -605.51,232.782 -1124.54,-646.834 -436.41,-1025.895 z m -36254.72,9246.165 c -431.55,431.545 -641.98,635.657 -1214.94,881.072 -641.97,274.576 -1213.97,293.045 -1895.3,285.271 -1029.3,-12.153 -2110.59,-555.472 -2744.79,-1360.732 -531.17,-674.047 -750.35,-1488.057 -798.46,-2332.681 -10.21,-186.13 18.95,-265.83 35.96,-437.379 95.74,-954.94 354.28,-1784.988 1081.78,-2464.382 1407.87,-1315.047 3716.74,-1260.618 5047.83,131.701 517.56,541.376 836.85,1299.984 917.52,2041.096 18.95,174.95 114.2,662.87 -28.19,778.047 -74.84,60.26 -258.54,48.113 -352.82,48.113 h -6026.09 c 94.28,2048.87 1918.63,3344.966 3887.8,2932.372 395.59,-83.1 781.94,-230.837 1117.75,-458.273 259.51,-175.926 345.52,-346.015 631.77,-481.601 z m 3450.42,-4713.96 c 150.17,-514.163 583.66,-900.025 1020.55,-1180.918 901.97,-579.77 2494.51,-639.545 3450.43,-161.833 355.24,177.869 705.14,484.032 934.04,808.179 548.18,777.074 523.88,1676.615 523.88,2575.668 v 3790.609 h -680.37 v -4373.779 c -0.96,-664.813 -180.29,-1344.694 -653.15,-1832.614 -1070.11,-1105.107 -3108.29,-809.148 -4044.77,326.09 -404.33,489.863 -596.29,1268.88 -599.21,1895.305 v 3984.998 h -680.36 v -7435.424 h 680.36 z m 14287.68,4276.584 c 81.16,38.878 117.6,49.568 190.01,111.289 425.23,364.965 32.08,610.383 -287.21,839.762 -553.53,397.531 -1309.7,644.404 -1992.5,652.668 -820.32,9.232 -1501.66,-40.824 -2235.48,-458.276 -588.03,-334.352 -1029.79,-748.888 -1367.05,-1339.835 -882.05,-1545.402 -573.94,-3840.177 832.47,-4982.703 1694.11,-1376.768 4514.72,-852.888 5421.54,1192.096 329.98,743.543 361.57,1200.358 361.57,1992.501 h -6414.88 c 1.46,2207.784 2231.12,3486.386 4227.99,2834.691 483.06,-157.941 958.83,-426.199 1263.54,-842.193 z m 3887.8,-4276.584 c 526.31,-1221.742 1557.55,-1652.317 2818.66,-1652.317 v 631.771 h -194.4 c -1539.08,17.981 -2606.28,1150.302 -2624.26,2672.861 v 4179.39 h -680.37 v -7435.424 h 631.77 z m 10788.66,3887.803 c -252.22,233.755 -333.37,497.151 -826.18,907.802 -822.26,684.74 -1659.6,756.177 -2672.84,744.515 -278.96,-3.403 -509.3,-58.805 -777.57,-127.812 -2360.28,-607.121 -2575.67,-2860.579 -2575.67,-3662.797 5.35,-451.957 151.14,-1053.594 353.3,-1457.926 605.53,-1211.537 1849.63,-1941.957 3194.33,-1943.902 h 340.17 c 790.2,3.888 1644.55,306.651 2235.48,834.419 411.14,367.399 425.72,473.827 728.98,866.496 v -1652.317 h 680.35 v 6317.679 l -50.53,583.17 v 485.977 c -93.31,898.566 -441.77,1777.697 -1212.99,2296.233 -1097.35,737.711 -3061.66,718.272 -4276.6,294.501 -344.54,-120.521 -822.75,-341.641 -1117.74,-551.581 -106.43,-75.814 -275.06,-197.792 -290.61,-338.24 -13.12,-124.897 173.98,-367.882 242.01,-485.974 372.75,168.146 554.02,476.254 1457.93,804.775 1104.15,401.416 2883.79,423.283 3788.67,-424.259 281.38,-263.399 488.4,-645.373 598.71,-1012.285 210.44,-701.748 180.8,-1737.848 180.8,-2478.474 z m 6998.03,-4519.571 c 321.22,-256.595 595.33,-446.611 971.96,-616.702 1490.96,-672.105 4119.11,-703.206 4704.23,1199.872 95.73,311.997 154.07,645.862 155.51,971.952 v 4908.351 h -631.76 v -1312.134 c -310.54,367.396 -442.24,616.702 -874.76,896.625 -963.19,623.991 -2816.23,665.785 -3742,-47.625 -249.3,-191.962 -486.46,-462.65 -614.76,-751.804 -262.91,-590.947 -212.38,-1460.844 167.18,-1992.501 245.4,-344.556 636.61,-583.17 1030.75,-724.588 577.82,-207.027 1241.67,-198.765 1846.7,-198.765 h 2138.31 c 0,-587.056 55.38,-1097.818 -188.58,-1652.315 -601.62,-1368.991 -2499.86,-1293.182 -3650.65,-768.812 -433.98,197.79 -591.41,336.294 -971.93,574.423 z m -3256.02,-971.951 h 680.37 v 7435.424 h -680.37 z m -36350.96,3353.23 c -9.72,-1053.594 -639.55,-2109.133 -1603.72,-2560.117 -462.65,-216.259 -907.32,-264.37 -1409.33,-258.538 -498.12,5.828 -1039.02,173.004 -1457.93,441.75 -823.72,528.256 -1234.86,1424.393 -1312.13,2376.905 z m 18224.07,0 c -132.67,-1004.996 -445.63,-1850.592 -1360.73,-2407.522 -555.96,-338.238 -1064.29,-418.422 -1700.91,-411.133 -1518.68,17.981 -2707.86,1327.197 -2721.47,2818.655 z m 11031.64,-2805.05 c -1031.71,149.197 -1841.37,440.78 -2408,1395.722 -223.56,376.631 -313.94,738.684 -375.18,1166.341 -258.54,1809.771 1014.73,3428.556 2880.37,3450.423 768.32,8.75 1451.62,-110.801 2089.7,-572.478 1330.12,-963.202 1560.95,-3134.053 519.03,-4384.469 -649.75,-779.019 -1706.27,-1148.359 -2705.92,-1055.539 z m 15502.63,3291.027 h -2867.27 c -396.08,4.858 -948.13,109.343 -1263.55,359.134 -649.75,514.648 -728.47,1547.833 -171.55,2159.674 386.87,425.229 1073.53,589.002 1629.49,591.432 915.09,4.374 1715.5,-214.316 2299.63,-971.951 264.86,-343.584 372.74,-590.459 373.25,-1020.547 z m -92626.906,8620.714 c -309.082,96.71 -572.481,313.939 -826.16,510.274 -1265.965,980.213 -1814.145,2647.109 -744.998,3990.345 669.186,840.738 2458.548,1396.692 3515.058,1409.327 1318.453,15.066 2678.697,-10.692 3839.207,-731.88 214.798,-133.641 494.236,-342.611 658.008,-533.599 754.235,-880.102 849.97,-2309.841 62.206,-3205.493 -448.556,-509.79 -1002.568,-728.477 -1643.57,-892.737 -816.923,-209.455 -2193.691,-340.668 -3061.643,-427.66 -515.135,-51.513 -1310.676,-184.669 -1798.108,-118.577 z"/></g>
</svg>
